<svg xmlns="http://www.w3.org/2000/svg" version="1.0" width="890.000000pt" height="981.000000pt" viewBox="0 0 890.000000 981.000000" preserveAspectRatio="xMidYMid meet">

<g transform="translate(0.000000,981.000000) scale(0.100000,-0.100000)" fill="#2463eb" stroke="none">
<path d="M3775 9786 c-172 -42 -342 -182 -486 -400 -85 -128 -212 -390 -258 -531 -58 -180 -75 -295 -68 -484 8 -215 41 -361 142 -622 47 -122 174 -378 273 -549 74 -130 79 -136 132 -163 73 -36 175 -57 286 -57 116 0 207 17 414 79 258 76 304 85 439 78 147 -7 210 -21 478 -108 120 -38 241 -73 270 -76 49 -5 57 -3 153 51 258 147 502 329 695 521 214 212 315 357 422 605 113 260 162 465 143 599 -28 200 -125 306 -335 368 -53 15 -113 17 -550 18 -530 1 -577 5 -770 60 -117 33 -304 126 -430 214 -363 254 -526 347 -685 390 -84 24 -187 26 -265 7z" fill="#2463eb"/>
<path d="M1935 7481 c-49 -22 -99 -77 -115 -126 -17 -52 -8 -149 16 -182 33 -44 65 -62 154 -87 111 -30 216 -75 326 -137 99 -57 293 -190 294 -201 0 -5 -11 -8 -25 -8 -37 0 -183 -34 -315 -73 -280 -83 -532 -167 -559 -186 -110 -79 -84 -289 43 -351 63 -30 109 -25 283 31 349 111 412 130 498 150 99 23 303 37 328 23 14 -8 3 -21 -61 -74 -322 -269 -719 -648 -942 -900 -568 -642 -910 -1250 -1030 -1834 -68 -331 -68 -701 1 -1010 44 -198 142 -453 250 -648 212 -384 585 -819 954 -1113 476 -380 1183 -631 2025 -719 830 -88 1670 0 2340 245 998 364 1585 1033 1705 1942 20 155 20 490 0 662 -85 729 -430 1501 -986 2210 -321 410 -882 984 -1384 1416 -95 83 -104 87 -175 103 -41 8 -147 25 -235 36 -192 25 -216 30 -373 80 -272 87 -408 91 -677 20 -215 -57 -273 -69 -384 -80 -116 -12 -278 2 -370 31 -141 47 -374 180 -627 360 -386 274 -529 353 -754 415 -101 29 -151 30 -205 5z m2792 -1673 c61 -29 122 -89 153 -153 23 -47 25 -61 28 -256 l4 -206 66 -18 c385 -103 706 -333 803 -577 29 -74 37 -195 15 -251 -37 -98 -132 -153 -252 -145 -74 5 -107 27 -192 129 -163 197 -248 275 -374 344 l-68 37 0 -584 0 -584 118 -28 c64 -16 158 -42 207 -58 492 -164 756 -565 714 -1087 -10 -122 -20 -175 -51 -271 -120 -370 -427 -616 -875 -703 l-112 -21 -3 -191 -3 -191 -33 -66 c-92 -188 -333 -231 -495 -89 -20 18 -49 58 -64 89 -27 56 -28 62 -31 254 l-3 196 -72 12 c-297 50 -608 204 -771 382 -191 209 -259 484 -155 628 73 100 222 116 318 33 23 -19 85 -97 139 -172 163 -230 307 -355 477 -417 l65 -24 0 649 c0 610 -1 650 -17 655 -10 3 -76 21 -147 41 -71 20 -156 47 -190 59 -368 139 -611 431 -673 809 -14 84 -15 118 -6 221 42 449 290 744 752 896 65 21 154 44 199 52 l82 12 0 176 c0 200 10 253 63 322 90 118 251 159 384 96z" fill="#2463eb"/>
<path d="M4225 4744 c-89 -23 -209 -90 -272 -152 -97 -95 -146 -201 -159 -343 -17 -197 77 -356 275 -457 82 -43 199 -88 206 -80 3 3 4 239 3 525 l-3 519 -50 -12z" fill="#2463eb"/>
<path d="M4910 2385 c0 -305 2 -555 5 -555 2 0 27 9 55 20 186 73 345 251 390 435 15 62 15 194 0 259 -27 120 -120 246 -231 311 -52 30 -186 85 -210 85 -5 0 -9 -215 -9 -555z" fill="#2463eb"/>
</g>
</svg>